<svg height="17" viewBox="0 0 15 17" width="15" xmlns="http://www.w3.org/2000/svg"><path d="m5 0c-1.6568591 0-3 1.3431405-3 3v1h1v-1c0-1.1045673.8954327-2 2-2s2 .8954327 2 2v3h-7v6h1v-5h8v1h1v-2h-2v-3c0-1.6568595-1.3431409-3-3-3zm3.5 9a8.5 8.5 0 0 0 -6.7246094 3.333984l.8222656.5625a7.5 7.5 0 0 1 5.9023438-2.896484 3.5 3.5 0 0 0 -3.5 3.5 3.5 3.5 0 0 0 3.5 3.5 3.5 3.5 0 0 0 3.5-3.5 3.5 3.5 0 0 0 -3.1308594-3.480469 7.5 7.5 0 0 1 5.3437504 2.625l.796875-.607422a8.5 8.5 0 0 0 -6.509766-3.037109zm0 2a2.5 2.5 0 0 1 2.5 2.5 2.5 2.5 0 0 1 -2.5 2.5 2.5 2.5 0 0 1 -2.5-2.5 2.5 2.5 0 0 1 2.5-2.5zm0 1a1.5 1.5 0 0 0 -1.5 1.5 1.5 1.5 0 0 0 1.5 1.5 1.5 1.5 0 0 0 1.5-1.5 1.5 1.5 0 0 0 -1.5-1.5z" fill="#eff0f1"/></svg>