<svg height="96" width="96" xmlns="http://www.w3.org/2000/svg" xmlns:xlink="http://www.w3.org/1999/xlink"><linearGradient id="a" gradientTransform="matrix(.49999977 0 0 .48275841 -75.99999 940.91394)" gradientUnits="userSpaceOnUse" x1="44" x2="44" y1="1044.3622" y2="964.36218"><stop offset="0" stop-color="#f39c12"/><stop offset="1" stop-color="#f9a11f"/></linearGradient><linearGradient id="b" gradientUnits="userSpaceOnUse" x1="-392.57143" x2="-392.57143" y1="1468.9264" y2="1448.9264"><stop offset="0" stop-color="#fddda3"/><stop offset="1" stop-color="#fde3a7"/></linearGradient><linearGradient id="c" gradientTransform="matrix(1.3636364 0 0 -1.3793103 -14.727273 1067.8105)" gradientUnits="userSpaceOnUse" x1="54.066666" x2="40" y1="30.775019" y2="17"><stop offset="0" stop-color="#383e51"/><stop offset="1" stop-color="#655c6f" stop-opacity="0"/></linearGradient><g transform="translate(0 -956.3622)"><path d="m18 964.3622v80h41l19.000002-19v-41.68965-19.31035h-19.09091z" fill="url(#a)"/><path d="m18 1043.3622h41v1h-41z" fill="#2e3132" fill-opacity=".294118"/><path d="m18 964.36218h60v1.00002h-60z" fill="#fff" fill-opacity=".409836"/><path d="m78.000002 1025.3622-19.000002 19v-19z" fill="url(#b)" fill-rule="evenodd"/><path d="m39.818183 1044.3622 19.181817-19v19z" fill="url(#c)" fill-rule="evenodd" opacity=".2"/><path d="m36.5 33a3.5 3.5 0 0 0 -3.5 3.5 3.5 3.5 0 0 0 3.5 3.5 3.5 3.5 0 0 0 3.181641-2.052734c2.144353 2.912429 3.313786 6.430551 3.318359 10.052734-.007485 3.618872-1.177162 7.133658-3.320312 10.042969a3.5 3.5 0 0 0 -3.179688-2.042969 3.5 3.5 0 0 0 -3.5 3.5 3.5 3.5 0 0 0 3.5 3.5 3.5 3.5 0 0 0 3.460938-3h16.039062v2h4v-4h-4v1h-15.798828c2.439907-3.14036 3.791093-7.002196 3.798828-11-.005127-3.997148-1.354117-7.858461-3.791016-11h15.791016v3h7v-7h-7v3h-16.041016a3.5 3.5 0 0 0 -3.458984-3zm0 1a2.5 2.5 0 0 1 2.5 2.5 2.5 2.5 0 0 1 -2.5 2.5 2.5 2.5 0 0 1 -2.5-2.5 2.5 2.5 0 0 1 2.5-2.5zm20.5 0h5v5h-5zm-20.5 23a2.5 2.5 0 0 1 2.5 2.5 2.5 2.5 0 0 1 -2.5 2.5 2.5 2.5 0 0 1 -2.5-2.5 2.5 2.5 0 0 1 2.5-2.5zm20.5 2h2v2h-2z" fill="#fff8eb" transform="translate(0 956.3622)"/></g></svg>