<?xml version="1.0" encoding="UTF-8" standalone="no"?>
<svg
   xmlns:dc="http://purl.org/dc/elements/1.1/"
   xmlns:cc="http://creativecommons.org/ns#"
   xmlns:rdf="http://www.w3.org/1999/02/22-rdf-syntax-ns#"
   xmlns:svg="http://www.w3.org/2000/svg"
   xmlns="http://www.w3.org/2000/svg"
   xmlns:sodipodi="http://sodipodi.sourceforge.net/DTD/sodipodi-0.dtd"
   xmlns:inkscape="http://www.inkscape.org/namespaces/inkscape"
   viewBox="0 0 24 24"
   version="1.1"
   id="svg6"
   sodipodi:docname="lc_objectposition.svg"
   inkscape:version="0.92.4 (unknown)"
   inkscape:export-filename="/home/rizmut/Dokumen/Rizmut/Github/tmp/breeze/cmd/lc_objectposition.png"
   inkscape:export-xdpi="96"
   inkscape:export-ydpi="96">
  <metadata
     id="metadata12">
    <rdf:RDF>
      <cc:Work
         rdf:about="">
        <dc:format>image/svg+xml</dc:format>
        <dc:type
           rdf:resource="http://purl.org/dc/dcmitype/StillImage" />
      </cc:Work>
    </rdf:RDF>
  </metadata>
  <defs
     id="defs10" />
  <sodipodi:namedview
     pagecolor="#ffffff"
     bordercolor="#666666"
     borderopacity="1"
     objecttolerance="10"
     gridtolerance="10"
     guidetolerance="10"
     inkscape:pageopacity="0"
     inkscape:pageshadow="2"
     inkscape:window-width="1360"
     inkscape:window-height="714"
     id="namedview8"
     showgrid="false"
     inkscape:zoom="9.8333333"
     inkscape:cx="-2.1864407"
     inkscape:cy="12"
     inkscape:window-x="0"
     inkscape:window-y="28"
     inkscape:window-maximized="1"
     inkscape:current-layer="svg6" />
  <path
     d="m10 1047.3622c-.552285 0-1 .4477-1 1s.447715 1 1 1 1-.4477 1-1-.447715-1-1-1zm4 0c-.552285 0-1 .4477-1 1s.447715 1 1 1 1-.4477 1-1-.447715-1-1-1zm4 0c-.552285 0-1 .4477-1 1s.447715 1 1 1 1-.4477 1-1-.447715-1-1-1z"
     fill="#f47750"
     id="path2" />
  <path
     d="m4 4v1h16v-1zm3.5 2-.21875.2148438-3.28125 3.2304687.71875.7089845 2.28125-2.2460939v8.1523439 3.939453h1v-3.939453-8.1523439l2.28125 2.2460939.71875-.7089845-3.28125-3.2304687zm4.5 3v1h8v-1zm0 5v1h8v-1z"
     fill="#4d4d4d"
     id="path4" />
  <path
     inkscape:connector-curvature="0"
     style="fill:#f47750"
     d="m 11,18 c -0.552285,0 -1,0.44772 -1,1 0,0.55228 0.447715,1 1,1 0.552285,0 1,-0.44772 1,-1 0,-0.55228 -0.447715,-1 -1,-1 z m 4,0 c -0.552285,0 -1,0.44772 -1,1 0,0.55228 0.447715,1 1,1 0.552285,0 1,-0.44772 1,-1 0,-0.55228 -0.447715,-1 -1,-1 z m 4,0 c -0.552285,0 -1,0.447715 -1,1 0,0.552285 0.447715,1 1,1 0.552285,0 1,-0.447715 1,-1 0,-0.552285 -0.447715,-1 -1,-1 z"
     id="path2-3" />
</svg>
