<?xml version="1.0" encoding="UTF-8" standalone="no"?>
<svg
   xmlns:dc="http://purl.org/dc/elements/1.1/"
   xmlns:cc="http://creativecommons.org/ns#"
   xmlns:rdf="http://www.w3.org/1999/02/22-rdf-syntax-ns#"
   xmlns:svg="http://www.w3.org/2000/svg"
   xmlns="http://www.w3.org/2000/svg"
   xmlns:sodipodi="http://sodipodi.sourceforge.net/DTD/sodipodi-0.dtd"
   xmlns:inkscape="http://www.inkscape.org/namespaces/inkscape"
   viewBox="0 0 24 24"
   version="1.1"
   id="svg6"
   sodipodi:docname="lc_smallcaps.svg"
   inkscape:version="0.92.4 (unknown)"
   inkscape:export-filename="/home/rizmut/Dokumen/Rizmut/Github/libreoffice-style-breeze/images_breeze/cmd/lc_smallcaps.png"
   inkscape:export-xdpi="96"
   inkscape:export-ydpi="96">
  <metadata
     id="metadata12">
    <rdf:RDF>
      <cc:Work
         rdf:about="">
        <dc:format>image/svg+xml</dc:format>
        <dc:type
           rdf:resource="http://purl.org/dc/dcmitype/StillImage" />
      </cc:Work>
    </rdf:RDF>
  </metadata>
  <defs
     id="defs10" />
  <sodipodi:namedview
     pagecolor="#ffffff"
     bordercolor="#666666"
     borderopacity="1"
     objecttolerance="10"
     gridtolerance="10"
     guidetolerance="10"
     inkscape:pageopacity="0"
     inkscape:pageshadow="2"
     inkscape:window-width="1360"
     inkscape:window-height="714"
     id="namedview8"
     showgrid="true"
     inkscape:zoom="13.906433"
     inkscape:cx="3.5992975"
     inkscape:cy="12.804215"
     inkscape:window-x="0"
     inkscape:window-y="28"
     inkscape:window-maximized="1"
     inkscape:current-layer="svg6">
    <inkscape:grid
       type="xygrid"
       id="grid822" />
  </sodipodi:namedview>
  <path
     d="m6.2089844 8-2.8417969 8.222656-.1054687.34961-1.2617188 3.427734h1.4199219l1.3945312-3.802734h4.65625l1.3945309 3.802734h1.419922l-1.261718-3.427734-.105469-.34961-2.8417971-8.222656h-.1835938-1.5zm.9472656 1.6601562 1.8339844 5.3398438h-3.6953125zm5.84375 1.3398438v9h1 5.5a2.4999914 2.4999914 0 0 0 2.5-2.5 2.4999914 2.4999914 0 0 0 -1.632812-2.341797 2.5 2.5 0 0 0 .632812-1.658203 2.5 2.5 0 0 0 -2.5-2.5h-4.5zm1 1h4.5a1.5 1.5 0 0 1 1.5 1.5 1.5 1.5 0 0 1 -1.5 1.5h-4.5zm0 4h5.5a1.5 1.5 0 0 1 1.5 1.5 1.5 1.5 0 0 1 -1.5 1.5h-5.5z"
     fill="#4d4d4d"
     id="path2" />
  <path
     d="M 17,7 14,3 h 6 z"
     id="path4"
     inkscape:connector-curvature="0"
     style="fill:#1d99f3" />
</svg>
