<?xml version="1.0" encoding="UTF-8" standalone="no"?>
<svg
   xmlns:dc="http://purl.org/dc/elements/1.1/"
   xmlns:cc="http://creativecommons.org/ns#"
   xmlns:rdf="http://www.w3.org/1999/02/22-rdf-syntax-ns#"
   xmlns:svg="http://www.w3.org/2000/svg"
   xmlns="http://www.w3.org/2000/svg"
   xmlns:sodipodi="http://sodipodi.sourceforge.net/DTD/sodipodi-0.dtd"
   xmlns:inkscape="http://www.inkscape.org/namespaces/inkscape"
   viewBox="0 0 16 16"
   version="1.1"
   id="svg6"
   sodipodi:docname="sc_smallcaps.svg"
   inkscape:version="0.92.4 (unknown)"
   inkscape:export-filename="/home/rizmut/Dokumen/Rizmut/Github/libreoffice-style-breeze/images_breeze/cmd/sc_smallcaps.png"
   inkscape:export-xdpi="96"
   inkscape:export-ydpi="96">
  <metadata
     id="metadata12">
    <rdf:RDF>
      <cc:Work
         rdf:about="">
        <dc:format>image/svg+xml</dc:format>
        <dc:type
           rdf:resource="http://purl.org/dc/dcmitype/StillImage" />
      </cc:Work>
    </rdf:RDF>
  </metadata>
  <defs
     id="defs10" />
  <sodipodi:namedview
     pagecolor="#ffffff"
     bordercolor="#666666"
     borderopacity="1"
     objecttolerance="10"
     gridtolerance="10"
     guidetolerance="10"
     inkscape:pageopacity="0"
     inkscape:pageshadow="2"
     inkscape:window-width="1360"
     inkscape:window-height="714"
     id="namedview8"
     showgrid="true"
     inkscape:zoom="41.7193"
     inkscape:cx="10.830492"
     inkscape:cy="10.80108"
     inkscape:window-x="0"
     inkscape:window-y="28"
     inkscape:window-maximized="1"
     inkscape:current-layer="svg6">
    <inkscape:grid
       type="xygrid"
       id="grid822" />
  </sodipodi:namedview>
  <path
     d="m4.1308594 5-3.1308594 8h1.1699219l.7480469-2h3.6953124l.7480469 2h1.1523438l-3.125-8zm.6269531 1 1.5097656 4h-3.015625zm4.2421875 0v7h1 3a2 2 0 0 0 2-2 2 2 0 0 0 -1.341797-1.8847656 2 2 0 0 0 .341797-1.1152344 2 2 0 0 0 -2-2h-2zm1 1h2a1 1 0 0 1 1 1 1 1 0 0 1 -1 1h-2zm0 3h3a1 1 0 0 1 1 1 1 1 0 0 1 -1 1h-3z"
     fill="#4d4d4d"
     id="path2" />
  <path
     d="M 11.214844,5 8.7148438,2 h 5.0000002 z"
     id="path4"
     inkscape:connector-curvature="0"
     style="fill:#1d99f3" />
</svg>
