<svg height="96" width="96" xmlns="http://www.w3.org/2000/svg" xmlns:xlink="http://www.w3.org/1999/xlink"><linearGradient id="a" gradientTransform="matrix(2.0363633 0 0 1.9310359 -1185.9637 -464.8653)" gradientUnits="userSpaceOnUse" x1="44" x2="44" y1="1044.3622" y2="964.36218"><stop offset="0" stop-color="#2a2c2f"/><stop offset="1" stop-color="#424649"/></linearGradient><linearGradient id="b" gradientTransform="matrix(1.3636364 0 0 1.3793103 4.363636 960.22427)" gradientUnits="userSpaceOnUse" x1="47" x2="47" y1="61" y2="47"><stop offset="0" stop-color="#c8e3fe"/><stop offset="1" stop-color="#fff"/></linearGradient><linearGradient id="c" gradientTransform="matrix(1.3636364 0 0 -1.3793103 -14.727273 1067.8105)" gradientUnits="userSpaceOnUse" x1="54.066666" x2="40" y1="30.775019" y2="17"><stop offset="0" stop-color="#383e51"/><stop offset="1" stop-color="#655c6f" stop-opacity="0"/></linearGradient><g transform="translate(0 -956.3622)"><path d="m18 964.3622v80h41l19.000002-19v-41.68965-19.31035h-19.09091z" fill="url(#a)"/><path d="m18 1043.3622h41v1h-41z" fill="#2e3132" fill-opacity=".294118"/><path d="m18 964.36218h60v1.00002h-60z" fill="#fff" fill-opacity=".409836"/><path d="m78.000002 1025.3622-19.000002 19v-19z" fill="url(#b)" fill-rule="evenodd"/><path d="m39.818183 1044.3622 19.181817-19v19z" fill="url(#c)" fill-rule="evenodd" opacity=".2"/><path d="m54.525188 989.3617-8.025188 30.5005-6.668498-12.5h-.01332-6.818182v1h6.04581l6.95419 13h1.5l8-31h7.5v-1h-7.063211-1.118608-.292969z" fill="#fff"/></g></svg>