<svg height="17" viewBox="0 0 15 17" width="15" xmlns="http://www.w3.org/2000/svg"><path d="m5 0c-1.6568574 0-3 1.3431423-3 3v3h-2v6h1v-5h8v1h1v-2h-2v-3c0-1.6568577-1.3431426-3-3-3zm0 1c1.1045662 0 2 .8954338 2 2v3h-4v-3c0-1.1045662.8954338-2 2-2zm3.5 8a8.5 8.5 0 0 0 -6.7246094 3.333984l.8222656.5625a7.5 7.5 0 0 1 5.9023438-2.896484 3.5 3.5 0 0 0 -3.5 3.5 3.5 3.5 0 0 0 3.5 3.5 3.5 3.5 0 0 0 3.5-3.5 3.5 3.5 0 0 0 -3.1308594-3.480469 7.5 7.5 0 0 1 5.3437504 2.625l.796875-.607422a8.5 8.5 0 0 0 -6.509766-3.037109zm0 2a2.5 2.5 0 0 1 2.5 2.5 2.5 2.5 0 0 1 -2.5 2.5 2.5 2.5 0 0 1 -2.5-2.5 2.5 2.5 0 0 1 2.5-2.5zm0 1a1.5 1.5 0 0 0 -1.5 1.5 1.5 1.5 0 0 0 1.5 1.5 1.5 1.5 0 0 0 1.5-1.5 1.5 1.5 0 0 0 -1.5-1.5z" fill="#232629"/></svg>