<?xml version="1.0" encoding="UTF-8" standalone="no"?>
<svg
   xmlns:dc="http://purl.org/dc/elements/1.1/"
   xmlns:cc="http://creativecommons.org/ns#"
   xmlns:rdf="http://www.w3.org/1999/02/22-rdf-syntax-ns#"
   xmlns:svg="http://www.w3.org/2000/svg"
   xmlns="http://www.w3.org/2000/svg"
   xmlns:sodipodi="http://sodipodi.sourceforge.net/DTD/sodipodi-0.dtd"
   xmlns:inkscape="http://www.inkscape.org/namespaces/inkscape"
   viewBox="0 0 32 32"
   version="1.1"
   id="svg4"
   sodipodi:docname="datastreams.svg"
   inkscape:version="0.92.4 (unknown)"
   inkscape:export-filename="/home/rizmut/Dokumen/Rizmut/Github/libreoffice-style-breeze/images_breeze/cmd/32/datastreams.png"
   inkscape:export-xdpi="96"
   inkscape:export-ydpi="96">
  <metadata
     id="metadata10">
    <rdf:RDF>
      <cc:Work
         rdf:about="">
        <dc:format>image/svg+xml</dc:format>
        <dc:type
           rdf:resource="http://purl.org/dc/dcmitype/StillImage" />
        <dc:title></dc:title>
      </cc:Work>
    </rdf:RDF>
  </metadata>
  <defs
     id="defs8" />
  <sodipodi:namedview
     pagecolor="#ffffff"
     bordercolor="#666666"
     borderopacity="1"
     objecttolerance="10"
     gridtolerance="10"
     guidetolerance="10"
     inkscape:pageopacity="0"
     inkscape:pageshadow="2"
     inkscape:window-width="1360"
     inkscape:window-height="714"
     id="namedview6"
     showgrid="true"
     inkscape:zoom="7.375"
     inkscape:cx="-10.71277"
     inkscape:cy="16.416548"
     inkscape:window-x="0"
     inkscape:window-y="28"
     inkscape:window-maximized="1"
     inkscape:current-layer="svg4">
    <inkscape:grid
       type="xygrid"
       id="grid812" />
  </sodipodi:namedview>
  <path
     style="fill:#4d4d4d"
     d="M 6 4 L 6 28 L 15 28 L 15 27 L 7 27 L 7 5 L 18 5 L 18 12 L 25 12 L 25 17 L 26 17 L 26 11 L 19 4 L 18 4 L 6 4 z M 20 16 C 16.686291 16 14 18.686287 14 22 C 14 25.313713 16.686291 28 20 28 C 23.313708 28 26 25.313713 26 22 C 26 18.686287 23.313708 16 20 16 z M 20 17 C 20.172589 17 20.331915 17.01418 20.5 17.03125 C 20.54034 17.03522 20.584959 17.02633 20.625 17.03125 C 20.677621 17.03792 20.729152 17.054209 20.78125 17.0625 C 20.924902 17.08508 21.048275 17.121724 21.1875 17.15625 C 21.444097 17.219547 21.698223 17.305045 21.9375 17.40625 C 22.069426 17.46205 22.186649 17.527236 22.3125 17.59375 C 22.312425 17.60275 22.3133 17.614 22.3125 17.625 C 22.34148 17.638 22.35728 17.69175 22.40625 17.71875 C 22.42423 17.72875 22.42056 17.741 22.4375 17.75 C 22.46648 17.766 22.50599 17.7835 22.5 17.8125 C 22.492 17.8525 22.43425 17.844 22.40625 17.875 C 22.41005 17.933 22.35871 17.92975 22.34375 17.96875 C 22.35275 17.99375 22.40229 18.00125 22.40625 18.03125 C 22.40135 18.06325 22.33173 18.06075 22.34375 18.09375 C 22.39776 18.13575 22.449004 18.10375 22.5 18.09375 C 22.611991 18.07975 22.712253 18.08825 22.78125 18.03125 C 22.77225 17.97825 22.88099 17.9856 22.875 17.9375 C 22.90366 17.958382 22.9403 17.978817 22.96875 18 C 22.95799 18.01008 22.94958 18.02585 22.9375 18.03125 C 22.91649 18.04125 22.89401 18.0505 22.875 18.0625 C 22.847 18.0805 22.81328 18.104 22.78125 18.125 C 22.75826 18.141 22.7115 18.21875 22.6875 18.21875 C 22.65851 18.21875 22.61475 18.1815 22.59375 18.1875 C 22.56372 18.1975 22.56519 18.238 22.53125 18.25 C 22.46526 18.274 22.335495 18.2135 22.3125 18.3125 C 22.3405 18.3695 22.450005 18.343 22.5 18.375 C 22.53102 18.395 22.58575 18.466 22.59375 18.5 C 22.60175 18.528 22.60574 18.6575 22.59375 18.6875 C 22.56273 18.7675 22.466988 18.751 22.375 18.75 L 22.3125 18.75 C 22.157516 18.74 22.007499 18.67025 21.9375 18.78125 C 21.94245 18.86625 21.95653 18.926 21.9375 19 C 21.92353 19.054 21.840752 19.10965 21.84375 19.15625 C 21.84485 19.18025 21.900255 19.216 21.90625 19.25 C 21.9101 19.268 21.89818 19.2955 21.90625 19.3125 C 21.932265 19.3615 21.985254 19.3025 22.03125 19.3125 C 22.07525 19.3225 22.125 19.3883 22.125 19.4375 C 22.125 19.4725 22.1158 19.5286 22.09375 19.5625 C 22.04975 19.6285 21.969247 19.62025 21.90625 19.65625 C 21.854275 19.68625 21.843502 19.7609 21.8125 19.8125 C 21.7795 19.8685 21.736983 19.88865 21.75 19.96875 C 21.70501 20.05775 21.655488 20.11325 21.5625 20.15625 C 21.535495 20.16825 21.493747 20.1695 21.46875 20.1875 C 21.44873 20.2015 21.434272 20.24925 21.40625 20.28125 C 21.37127 20.32025 21.331497 20.345 21.3125 20.375 C 21.298475 20.398 21.29621 20.43675 21.28125 20.46875 C 21.25925 20.51075 21.215494 20.5203 21.1875 20.5625 C 21.17452 20.5825 21.17022 20.63025 21.15625 20.65625 C 21.12424 20.71425 21.087749 20.7615 21.09375 20.8125 C 21.0987 20.8605 21.153252 20.86225 21.15625 20.90625 C 21.159 20.93025 21.12401 20.94175 21.125 20.96875 C 21.1261 21.00675 21.15328 21.0325 21.15625 21.0625 C 21.16324 21.1365 21.10772 21.16815 21.09375 21.21875 C 21.08676 21.24275 21.09975 21.26125 21.09375 21.28125 C 21.08176 21.31825 21.032251 21.36205 21.03125 21.40625 C 21.03015 21.43725 21.09078 21.456 21.09375 21.5 C 21.09595 21.529 21.056505 21.56575 21.0625 21.59375 C 21.0735 21.64775 21.176758 21.708 21.21875 21.75 C 21.275747 21.807 21.350008 21.84625 21.375 21.90625 C 21.39601 21.95725 21.398533 22.05565 21.4375 22.09375 C 21.466485 22.12175 21.525507 22.12625 21.5625 22.15625 C 21.59748 22.18325 21.619253 22.18875 21.65625 22.21875 C 21.717245 22.26675 21.809252 22.382 21.90625 22.375 C 21.957235 22.365 22.005504 22.3225 22.0625 22.3125 C 22.1215 22.3025 22.190006 22.27625 22.25 22.28125 C 22.29598 22.29125 22.358253 22.3155 22.40625 22.3125 C 22.45624 22.3025 22.50551 22.30625 22.5625 22.28125 C 22.6615 22.23825 22.824766 22.1668 22.96875 22.1875 C 23.078739 22.2035 23.079255 22.326 23.15625 22.375 C 23.24424 22.385 23.305007 22.358 23.375 22.375 C 23.42802 22.388 23.495001 22.4584 23.5 22.5 C 23.505 22.543 23.44349 22.5978 23.4375 22.625 C 23.42353 22.683 23.4475 22.74425 23.4375 22.78125 C 23.4295 22.81025 23.40526 22.846 23.40625 22.875 C 23.40625 22.901 23.44173 22.9658 23.46875 23 C 23.50175 23.042 23.55375 23.0798 23.59375 23.125 C 23.66674 23.209 23.699004 23.29525 23.75 23.40625 C 23.76298 23.43425 23.73801 23.464 23.75 23.5 C 23.728 23.6679 23.67249 23.78285 23.5625 23.96875 C 23.51052 24.02875 23.436499 24.08135 23.4375 24.15625 C 23.4337 24.33625 23.53925 24.451 23.53125 24.625 C 23.51327 24.8589 23.54929 24.8751 23.53125 25 C 23.61025 25.04 23.55424 25.1669 23.53125 25.25 C 23.49726 25.349 23.4565 25.3715 23.4375 25.4375 C 23.49058 25.46064 23.566021 25.45109 23.625 25.4375 C 23.5952 25.46887 23.56184 25.50066 23.53125 25.53125 C 23.305044 25.757456 23.047252 25.976543 22.78125 26.15625 C 22.265207 26.504882 21.691241 26.769698 21.0625 26.90625 C 20.718961 26.980861 20.365889 27 20 27 C 19.809667 27 19.621865 26.989959 19.4375 26.96875 C 19.290639 26.951989 19.142714 26.935453 19 26.90625 C 18.716825 26.848304 18.451028 26.728616 18.1875 26.625 C 18.17813 26.60785 18.154124 26.58262 18.15625 26.5625 C 18.208225 26.5405 18.305756 26.6365 18.34375 26.5625 C 18.36278 26.5275 18.318725 26.44125 18.34375 26.40625 C 18.361735 26.38225 18.463007 26.382 18.5 26.375 C 18.55302 26.365 18.626253 26.35775 18.65625 26.34375 C 18.68925 26.32275 18.724751 26.2491 18.71875 26.1875 C 18.716 26.1585 18.679185 26.151 18.65625 26.125 C 18.637275 26.103 18.66923 26.0835 18.65625 26.0625 C 18.63227 26.0275 18.572499 26.01975 18.5625 25.96875 C 18.634495 25.95475 18.739762 26.029 18.84375 26 C 18.892755 25.986 18.976999 25.88985 19 25.84375 C 19.00699 25.82975 18.99202 25.79925 19 25.78125 C 19.00902 25.76325 19.028225 25.72875 19.03125 25.71875 C 19.03823 25.69175 19.02525 25.7055 19.03125 25.6875 C 19.049235 25.6365 19.094997 25.5988 19.125 25.5625 C 19.14799 25.5345 19.197723 25.49775 19.21875 25.46875 C 19.24273 25.43775 19.23405 25.43425 19.25 25.40625 C 19.265015 25.31525 19.19675 25.23615 19.21875 25.15625 C 19.24273 25.06625 19.381762 25.00975 19.46875 24.96875 C 19.498725 24.95475 19.537502 24.9465 19.5625 24.9375 C 19.622494 24.9165 19.694004 24.895 19.75 24.875 C 19.843995 24.841 19.860248 24.7734 19.90625 24.6875 C 19.92825 24.6475 19.964735 24.5918 19.96875 24.5625 C 19.9726 24.5365 19.9638 24.531 19.96875 24.5 C 19.9737 24.471 19.96077 24.44025 19.96875 24.40625 C 19.97975 24.36325 20 24.26665 20 24.21875 C 20 24.17875 19.96974 24.161 19.96875 24.125 C 19.96176 23.995 20.014512 24.0085 20.0625 23.9375 C 20.08648 23.9025 20.10806 23.8376 20.125 23.8125 C 20.205993 23.6925 20.353749 23.65075 20.34375 23.46875 C 20.3399 23.40875 20.293978 23.269 20.25 23.25 C 20.224975 23.239 20.193248 23.23175 20.15625 23.21875 C 20.038258 23.17475 19.935485 23.04125 19.8125 23.03125 L 19.75 23.03125 C 19.701985 23.03125 19.647744 23.007 19.59375 23 C 19.55976 22.99 19.488748 23.01 19.46875 23 C 19.43773 22.985 19.43122 22.92325 19.40625 22.90625 C 19.38623 22.89225 19.343493 22.886 19.3125 22.875 C 19.263495 22.857 19.244497 22.8165 19.1875 22.8125 C 19.169515 22.8125 19.144982 22.8225 19.125 22.8125 C 19.09398 22.8025 19.060246 22.79925 19.03125 22.78125 C 18.99528 22.75925 18.952498 22.74975 18.9375 22.71875 C 18.9705 22.61085 18.86575 22.59425 18.84375 22.53125 C 18.83374 22.50225 18.85376 22.43225 18.84375 22.40625 C 18.83077 22.36925 18.791002 22.3435 18.75 22.3125 C 18.678005 22.2565 18.634243 22.23165 18.53125 22.21875 C 18.48527 22.20875 18.429994 22.22875 18.375 22.21875 C 18.317008 22.20875 18.231495 22.175 18.1875 22.125 C 18.14548 22.076 18.130744 22.0231 18.09375 22 C 18.05877 21.978 18.023996 21.9605 18 21.9375 C 17.989 21.9275 17.97876 21.92925 17.96875 21.90625 C 17.950765 21.86925 17.9155 21.8575 17.9375 21.8125 C 17.897515 21.7925 17.917993 21.85075 17.875 21.84375 C 17.836005 21.78875 17.806739 21.734 17.71875 21.75 C 17.678765 21.76 17.640747 21.84275 17.59375 21.84375 C 17.554755 21.84375 17.519746 21.758 17.46875 21.75 C 17.429755 21.74 17.370749 21.78625 17.34375 21.78125 C 17.30074 21.77125 17.288973 21.74475 17.25 21.71875 C 17.221015 21.69975 17.17225 21.65525 17.15625 21.65625 C 17.106255 21.65625 17.068991 21.75515 17 21.71875 C 16.96601 21.67575 17.071268 21.665 17.03125 21.625 C 17.001275 21.596 16.992763 21.64225 16.96875 21.65625 C 16.940755 21.67425 16.905993 21.6765 16.875 21.6875 C 16.806002 21.7135 16.741494 21.721 16.6875 21.75 C 16.637505 21.776 16.622747 21.79245 16.59375 21.84375 C 16.57076 21.88575 16.534997 21.96675 16.5 21.96875 C 16.45798 21.96875 16.444249 21.92325 16.40625 21.90625 C 16.291262 21.85625 16.219991 21.9355 16.125 21.9375 C 16.037006 21.9375 15.902252 21.80175 15.90625 21.71875 C 15.909 21.66775 15.931505 21.59425 15.9375 21.53125 C 15.94245 21.48125 15.999065 21.4206 16 21.375 C 16.0011 21.313 15.883746 21.28835 15.84375 21.28125 C 15.749755 21.26425 15.638241 21.32325 15.53125 21.28125 C 15.51123 21.24725 15.55051 21.2215 15.5625 21.1875 C 15.56948 21.1695 15.55551 21.146 15.5625 21.125 C 15.57449 21.093 15.641257 21.06525 15.65625 21.03125 C 15.66725 21.00525 15.64525 20.9705 15.65625 20.9375 C 15.66923 20.9015 15.715725 20.86975 15.71875 20.84375 C 15.7226 20.80975 15.6832 20.772 15.65625 20.75 C 15.573255 20.76 15.516749 20.75725 15.46875 20.78125 C 15.360763 20.83025 15.390244 20.966 15.28125 21 C 15.244235 21.012 15.198248 21.02425 15.15625 21.03125 C 15.137935 21.04125 15.11427 21.02925 15.09375 21.03125 C 15.0957 21.021134 15.09174 21.010094 15.09375 21 C 15.09841 20.977216 15.120029 20.96017 15.125 20.9375 C 15.196265 20.612503 15.306395 20.297934 15.4375 20 L 15.46875 20 C 15.506755 20.01 15.529505 20.0595 15.5625 20.0625 C 15.654493 20.0725 15.674001 19.9777 15.75 19.9375 C 15.827996 19.9485 15.866506 19.9275 15.9375 19.9375 C 15.985515 19.9475 16.055756 19.996 16.09375 20 C 16.12576 20 16.126248 19.96475 16.15625 19.96875 C 16.186225 19.97875 16.245 20.0265 16.25 20.0625 C 16.25495 20.1075 16.205715 20.16915 16.21875 20.21875 C 16.265775 20.26675 16.370504 20.2845 16.4375 20.3125 C 16.4815 20.2755 16.44448 20.20825 16.4375 20.15625 C 16.4364 20.13325 16.44025 20.0835 16.4375 20.0625 C 16.43255 20.0265 16.40625 19.99975 16.40625 19.96875 C 16.40625 19.82575 16.529008 19.77465 16.625 19.71875 C 16.665975 19.69475 16.714002 19.643 16.75 19.625 C 16.800985 19.6 16.833002 19.61775 16.875 19.59375 C 16.950988 19.55075 17.003501 19.4862 17.0625 19.4375 C 17.089505 19.3725 17.05975 19.28275 17.0625 19.21875 C 17.089505 19.20175 17.127282 19.21875 17.15625 19.21875 C 17.20223 19.20875 17.223996 19.151 17.25 19.125 C 17.265015 19.11 17.294482 19.10875 17.3125 19.09375 C 17.35848 19.05775 17.366237 19.016 17.40625 19 C 17.420275 18.99 17.446723 18.97575 17.46875 18.96875 C 17.49878 18.95875 17.545757 18.9555 17.59375 18.9375 C 17.62477 18.9265 17.706749 18.91925 17.71875 18.90625 C 17.733765 18.89125 17.7149 18.8355 17.71875 18.8125 C 17.74273 18.6996 17.899009 18.69435 18 18.65625 C 18.069993 18.63025 18.140754 18.5485 18.21875 18.5625 C 18.203735 18.6165 18.143249 18.6224 18.15625 18.6875 C 18.173245 18.7785 18.280501 18.66925 18.3125 18.65625 C 18.373495 18.63025 18.482502 18.5925 18.5625 18.5625 C 18.632493 18.5375 18.753489 18.5181 18.6875 18.4375 C 18.6325 18.4275 18.610494 18.48 18.5625 18.5 C 18.5295 18.51 18.527978 18.47175 18.5 18.46875 C 18.472995 18.46875 18.464527 18.505 18.4375 18.5 C 18.410495 18.49 18.378998 18.43925 18.375 18.40625 C 18.364 18.32225 18.43476 18.3119 18.46875 18.25 C 18.44576 18.174 18.345243 18.2175 18.28125 18.1875 C 18.28824 18.1425 18.322007 18.10375 18.375 18.09375 C 18.41801 18.08375 18.536501 18.102 18.5625 18.125 C 18.577515 18.138 18.53956 18.1665 18.5625 18.1875 C 18.588515 18.2105 18.622254 18.1975 18.65625 18.1875 C 18.66824 18.1305 18.583751 18.162 18.59375 18.125 C 18.661741 18.081 18.792005 18.10475 18.875 18.09375 C 18.923015 18.08375 18.988251 18.05425 19.03125 18.03125 C 19.071235 18.00825 19.083002 17.962 19.125 18 C 19.13699 18.041 19.116685 18.07175 19.09375 18.09375 C 19.016756 18.16175 18.934994 18.2336 18.875 18.3125 C 18.912015 18.3485 18.969254 18.33675 19.03125 18.34375 C 19.05523 18.35375 19.099997 18.33875 19.125 18.34375 C 19.15503 18.35375 19.194748 18.33375 19.21875 18.34375 C 19.26077 18.35375 19.270507 18.4375 19.3125 18.4375 C 19.380496 18.4375 19.351523 18.3577 19.3125 18.3125 C 19.32449 18.2655 19.3608 18.2207 19.34375 18.1875 C 19.31273 18.1255 19.1935 18.206 19.1875 18.125 C 19.18365 18.075 19.231993 18.06925 19.25 18.03125 C 19.24202 17.93525 19.322499 17.93075 19.3125 17.84375 C 19.30755 17.80775 19.275008 17.81525 19.25 17.78125 C 19.23702 17.76325 19.23371 17.7015 19.21875 17.6875 C 19.166775 17.6435 19.0685 17.67795 19.0625 17.59375 C 19.05975 17.54375 19.06948 17.4911 19.0625 17.4375 C 19.05551 17.3865 19.012728 17.22875 18.96875 17.21875 C 18.912755 17.20675 18.879496 17.31245 18.8125 17.34375 C 18.77653 17.36075 18.693243 17.381 18.65625 17.375 C 18.63227 17.365 18.596753 17.3595 18.59375 17.3125 C 18.58979 17.2701 18.640597 17.251217 18.65625 17.21875 C 18.66016 17.21063 18.65426 17.19872 18.65625 17.1875 C 18.728816 17.167252 18.801216 17.142271 18.875 17.125 C 18.916917 17.11528 18.957687 17.102409 19 17.09375 C 19.029877 17.08753 19.063685 17.09946 19.09375 17.09375 C 19.227304 17.068988 19.362946 17.045169 19.5 17.03125 C 19.666239 17.013781 19.828902 17 20 17 z M 17.96875 17.46875 C 17.936916 17.651324 17.766003 17.724021 17.5625 17.71875 C 17.51652 17.76275 17.55622 17.84525 17.53125 17.90625 C 17.51024 17.95725 17.425991 18.004 17.375 18 C 17.337985 18 17.28125 17.94125 17.28125 17.90625 C 17.28125 17.86325 17.349521 17.8617 17.3125 17.8125 C 17.31415 17.8025 17.333355 17.79125 17.34375 17.78125 C 17.36399 17.768505 17.385853 17.762493 17.40625 17.75 C 17.587453 17.638483 17.773211 17.556828 17.96875 17.46875 z M 22.15625 17.65625 C 22.13782 17.66625 22.14122 17.6775 22.125 17.6875 C 22.08699 17.7105 22.06026 17.739 22.03125 17.75 C 21.99028 17.765 21.943504 17.7755 21.9375 17.8125 C 21.93255 17.8435 21.969795 17.846 21.96875 17.875 C 21.953735 17.912 21.94553 17.92375 21.9375 17.96875 C 21.988485 18.05175 22.093258 17.9505 22.15625 17.9375 C 22.18425 17.9275 22.20375 17.93025 22.21875 17.90625 C 22.23574 17.87925 22.23706 17.8507 22.25 17.8125 C 22.26403 17.7705 22.31751 17.75575 22.3125 17.71875 C 22.3087 17.68175 22.21824 17.65125 22.15625 17.65625 z M 16.6875 18.28125 C 16.734912 18.319347 16.801559 18.40185 16.71875 18.4375 C 16.70874 18.4475 16.586496 18.47275 16.5625 18.46875 C 16.55282 18.46875 16.539734 18.44475 16.53125 18.4375 C 16.582913 18.387192 16.633707 18.329303 16.6875 18.28125 z M 16.875 18.46875 C 16.89898 18.46875 16.909483 18.52925 16.9375 18.53125 C 16.964505 18.53125 16.983973 18.496 17 18.5 C 17.04202 18.511 17.071268 18.5938 17.03125 18.625 C 16.99825 18.635 16.992713 18.58975 16.96875 18.59375 C 16.900754 18.60575 16.863495 18.754 16.8125 18.75 C 16.764485 18.74 16.732228 18.62875 16.78125 18.59375 C 16.78235 18.56375 16.77921 18.56225 16.78125 18.53125 C 16.796265 18.51325 16.834982 18.46575 16.875 18.46875 z M 16.625 18.5 C 16.639025 18.5 16.651245 18.49 16.65625 18.5 C 16.64927 18.553 16.634708 18.56875 16.59375 18.59375 C 16.522756 18.63675 16.460501 18.68975 16.4375 18.78125 C 16.43051 18.80825 16.346495 18.8817 16.3125 18.875 C 16.233504 18.858 16.357015 18.7104 16.375 18.6875 C 16.39502 18.6625 16.414526 18.654 16.4375 18.625 C 16.46049 18.597 16.478055 18.54725 16.5 18.53125 C 16.52398 18.51425 16.583008 18.498 16.625 18.5 z M 23.40625 18.65625 C 23.48524 18.64625 23.526502 18.73365 23.5625 18.78125 C 23.59248 18.82025 23.669746 18.87905 23.71875 18.90625 C 23.74675 18.92125 23.7815 18.95475 23.8125 18.96875 C 23.87749 18.99775 23.996996 19.09225 24 19.15625 C 24.0011 19.18825 23.96374 19.22 23.96875 19.25 C 24.01776 19.26 24.0615 19.1742 24.0625 19.125 C 24.15441 19.255006 24.233102 19.39266 24.3125 19.53125 C 24.35 19.596707 24.40294 19.651296 24.4375 19.71875 C 24.39339 19.73175 24.38209 19.73825 24.375 19.78125 C 24.36499 19.83725 24.39649 19.9276 24.3125 19.9375 C 24.25953 19.9475 24.19799 19.892 24.125 19.875 C 24.09502 19.865 24.05525 19.885 24.03125 19.875 C 23.97625 19.857 23.9845 19.7833 23.9375 19.75 C 23.91049 19.731 23.824253 19.6925 23.78125 19.6875 C 23.75424 19.6875 23.74673 19.6975 23.71875 19.6875 C 23.68476 19.6775 23.62175 19.7015 23.59375 19.6875 C 23.56674 19.6705 23.50701 19.61675 23.5 19.59375 C 23.489 19.55675 23.59175 19.5313 23.59375 19.5 C 23.59595 19.476 23.5675 19.44325 23.5625 19.40625 C 23.5587 19.38425 23.5674 19.35875 23.5625 19.34375 C 23.5555 19.31775 23.50974 19.3135 23.46875 19.3125 L 23.375 19.3125 C 23.331 19.3125 23.242494 19.3085 23.1875 19.3125 C 23.1545 19.3125 23.12475 19.3095 23.09375 19.3125 C 23.00676 19.3225 22.942997 19.3025 22.875 19.3125 C 22.82599 19.3125 22.733496 19.354 22.6875 19.375 C 22.66451 19.386 22.65501 19.39125 22.625 19.40625 C 22.61103 19.41625 22.58054 19.4295 22.5625 19.4375 C 22.53451 19.4505 22.49575 19.492 22.46875 19.5 C 22.42976 19.51 22.38349 19.49 22.3125 19.5 C 22.26152 19.5 22.188501 19.46725 22.1875 19.40625 C 22.1864 19.31325 22.349511 19.36075 22.4375 19.34375 C 22.4705 19.33375 22.49123 19.30525 22.53125 19.28125 C 22.55028 19.27025 22.54451 19.262 22.5625 19.25 C 22.59247 19.229 22.65125 19.18025 22.65625 19.15625 C 22.66005 19.13425 22.65325 19.11075 22.65625 19.09375 C 22.66005 19.07275 22.69175 19.05925 22.71875 19.03125 C 22.76077 18.98925 22.79175 18.93345 22.84375 18.90625 C 22.87873 18.88825 22.9215 18.87275 22.9375 18.84375 C 22.9413 18.81175 22.9364 18.81125 22.9375 18.78125 C 22.9595 18.76125 22.98202 18.754 23 18.75 C 23.05401 18.738 23.09326 18.753 23.15625 18.75 C 23.18325 18.75 23.221 18.763 23.25 18.75 C 23.27398 18.734 23.2885 18.6995 23.3125 18.6875 C 23.33851 18.6735 23.37422 18.65825 23.40625 18.65625 z M 23.96875 19.25 L 23.84375 19.25 C 23.79975 19.25 23.74475 19.227 23.71875 19.25 C 23.75577 19.31 23.823255 19.32875 23.90625 19.34375 C 23.93623 19.32175 23.95478 19.2883 23.96875 19.25 z M 17.125 18.6875 L 17.21875 18.6875 C 17.243775 18.6875 17.271251 18.6775 17.28125 18.6875 C 17.265245 18.7535 17.114497 18.74275 17.0625 18.71875 C 17.06525 18.69375 17.092968 18.6915 17.125 18.6875 z M 16.90625 18.8125 C 16.862567 18.844282 16.819331 18.884583 16.75 18.90625 C 16.711995 18.91825 16.663252 18.917 16.65625 18.875 C 16.64822 18.823 16.715988 18.84875 16.75 18.84375 C 16.794 18.83375 16.855254 18.8145 16.90625 18.8125 z M 23.40625 18.8125 C 23.37325 18.8235 23.35724 18.89625 23.40625 18.90625 C 23.42924 18.89225 23.44355 18.8555 23.4375 18.8125 C 23.42452 18.7985 23.41621 18.8025 23.40625 18.8125 z M 23.34375 18.96875 C 23.34485 19.02475 23.35475 19.0764 23.34375 19.125 C 23.37576 19.187 23.452756 19.13575 23.46875 19.09375 C 23.48778 18.98975 23.45425 18.95575 23.40625 18.96875 C 23.39025 18.97875 23.36069 18.95575 23.34375 18.96875 z M 15.0625 21.3125 C 15.118864 21.3635 15.151292 21.43535 15.21875 21.46875 C 15.243775 21.48175 15.280501 21.492 15.3125 21.5 C 15.338515 21.51 15.350013 21.492 15.375 21.5 C 15.42802 21.518 15.489258 21.5435 15.53125 21.5625 C 15.595248 21.5905 15.66375 21.68675 15.71875 21.71875 C 15.7215 21.75075 15.70874 21.7885 15.71875 21.8125 C 15.744765 21.8475 15.770497 21.88225 15.8125 21.90625 C 15.863485 21.93425 15.889506 21.9778 15.9375 22 C 15.954495 22.01 15.973963 21.99 16 22 C 16.065994 22.02 16.099253 22.11055 16.15625 22.09375 C 16.193265 22.08275 16.181505 22.036 16.1875 22 C 16.212525 21.973 16.242222 21.9375 16.28125 21.9375 C 16.34324 21.9375 16.351999 22.03315 16.375 22.09375 C 16.38798 22.12775 16.428535 22.1515 16.4375 22.1875 C 16.452515 22.2495 16.45048 22.43175 16.4375 22.46875 C 16.421495 22.51475 16.350499 22.5122 16.3125 22.5625 C 16.294515 22.5865 16.29522 22.63925 16.28125 22.65625 C 16.25727 22.68525 16.236773 22.69075 16.21875 22.71875 C 16.20874 22.73375 16.196465 22.76025 16.1875 22.78125 C 16.15747 22.84525 16.099986 22.89175 16.125 22.96875 C 16.13501 22.99975 16.1875 23.0255 16.1875 23.0625 C 16.1875 23.1065 16.100751 23.1393 16.09375 23.1875 C 16.0888 23.2225 16.114055 23.2658 16.125 23.3125 C 16.13298 23.3475 16.197751 23.38325 16.21875 23.40625 C 16.25373 23.44525 16.280501 23.513 16.3125 23.5625 C 16.375491 23.6595 16.406765 23.78 16.46875 23.875 C 16.50175 23.924 16.57175 23.9484 16.59375 24 C 16.60475 24.026 16.58374 24.06975 16.59375 24.09375 C 16.62972 24.17475 16.794007 24.2726 16.875 24.3125 C 16.913005 24.3315 16.965009 24.32375 17 24.34375 C 17.05302 24.37375 17.160506 24.4534 17.1875 24.5 C 17.21148 24.542 17.20676 24.65185 17.21875 24.71875 C 17.233765 24.80675 17.2149 24.87365 17.21875 24.96875 C 17.2215 25.02075 17.25 25.04215 17.25 25.09375 C 17.25 25.11175 17.2511 25.1685 17.25 25.1875 C 17.2489 25.2495 17.25495 25.312 17.25 25.375 C 17.24725 25.409 17.2478 25.43975 17.25 25.46875 C 17.25275 25.49975 17.27927 25.50325 17.28125 25.53125 C 17.28345 25.56025 17.246975 25.602 17.25 25.625 C 17.25699 25.688 17.300499 25.72315 17.3125 25.78125 C 17.32251 25.82725 17.349745 25.945 17.34375 26 C 17.3399 26.029 17.316515 26.06075 17.3125 26.09375 C 17.30975 26.11975 17.31635 26.13225 17.3125 26.15625 C 17.30975 26.17925 17.31844 26.19975 17.3125 26.21875 C 17.280654 26.19827 17.250095 26.17743 17.21875 26.15625 C 16.952748 25.976543 16.694955 25.757456 16.46875 25.53125 C 16.438157 25.500657 16.404796 25.468874 16.375 25.4375 C 16.194419 25.247353 16.024138 25.029182 15.875 24.8125 C 15.861486 24.792866 15.856989 24.769835 15.84375 24.75 C 15.670704 24.490733 15.529064 24.227866 15.40625 23.9375 C 15.397395 23.916563 15.383577 23.896081 15.375 23.875 C 15.269623 23.616001 15.186074 23.341019 15.125 23.0625 C 15.113474 23.009935 15.103608 22.95942 15.09375 22.90625 C 15.068988 22.772696 15.045169 22.637054 15.03125 22.5 C 15.01418 22.331915 15 22.172589 15 22 C 15 21.762358 15.030436 21.541304 15.0625 21.3125 z M 17 21.84375 C 17.048015 21.82175 17.038995 21.89925 17 21.90625 C 16.962985 21.91625 16.96403 21.86175 17 21.84375 z "
     id="path2" />
  <g
     transform="translate(12,-1022.3622)"
     id="g5"
     style="fill:#4d4d4d;fill-opacity:1" />
</svg>
