<?xml version="1.0" encoding="UTF-8" standalone="no"?>
<svg
   xmlns:dc="http://purl.org/dc/elements/1.1/"
   xmlns:cc="http://creativecommons.org/ns#"
   xmlns:rdf="http://www.w3.org/1999/02/22-rdf-syntax-ns#"
   xmlns:svg="http://www.w3.org/2000/svg"
   xmlns="http://www.w3.org/2000/svg"
   xmlns:sodipodi="http://sodipodi.sourceforge.net/DTD/sodipodi-0.dtd"
   xmlns:inkscape="http://www.inkscape.org/namespaces/inkscape"
   viewBox="0 0 32 32"
   version="1.1"
   id="svg6"
   sodipodi:docname="displaymasterbackground.svg"
   inkscape:export-filename="/home/rizmut/Dokumen/Rizmut/Github/tmp/breeze/cmd/32/displaymasterbackground.png"
   inkscape:export-xdpi="96"
   inkscape:export-ydpi="96"
   inkscape:version="0.92.4 (unknown)">
  <metadata
     id="metadata12">
    <rdf:RDF>
      <cc:Work
         rdf:about="">
        <dc:format>image/svg+xml</dc:format>
        <dc:type
           rdf:resource="http://purl.org/dc/dcmitype/StillImage" />
      </cc:Work>
    </rdf:RDF>
  </metadata>
  <defs
     id="defs10" />
  <sodipodi:namedview
     pagecolor="#ffffff"
     bordercolor="#666666"
     borderopacity="1"
     objecttolerance="10"
     gridtolerance="10"
     guidetolerance="10"
     inkscape:pageopacity="0"
     inkscape:pageshadow="2"
     inkscape:window-width="1360"
     inkscape:window-height="714"
     id="namedview8"
     showgrid="true"
     inkscape:zoom="11.313709"
     inkscape:cx="8.1345956"
     inkscape:cy="3.3158144"
     inkscape:window-x="0"
     inkscape:window-y="28"
     inkscape:window-maximized="1"
     inkscape:current-layer="svg6"
     inkscape:snap-global="false">
    <inkscape:grid
       type="xygrid"
       id="grid822" />
  </sodipodi:namedview>
  <path
     style="fill:#1d99f3;fill-opacity:1"
     d="M 5 3 L 5 29 L 20.160156 29 C 18.931645 28.08709 18.121094 26.638946 18.121094 25 C 18.121094 24.638488 18.254277 24.31878 18.328125 23.978516 C 17.719121 24.560266 17.174499 25.214702 16.800781 26.003906 A 0.99830608 0.99830608 0 0 1 15.287109 26.365234 C 14.839041 26.017926 14.493582 25.545818 14.300781 25.001953 A 0.99830608 0.99830608 0 0 1 14.367188 24.1875 C 14.813697 23.374381 15.36545 22.642055 15.998047 21.998047 L 14 20 L 6 28 L 6 4 L 26 4 L 26 19.439453 C 26.338887 19.541729 26.675274 19.652152 27 19.789062 L 27 3 L 5 3 z M 11 6 C 9.3431458 6 8 7.3431458 8 9 C 8 10.656854 9.3431458 12 11 12 C 12.656854 12 14 10.656854 14 9 C 14 7.3431458 12.656854 6 11 6 z M 21 17 L 16.039062 21.960938 C 17.862128 20.125493 20.354777 19.04202 23.009766 19.009766 L 21 17 z M 23.119141 20 A 9 9 0 0 0 15.242188 24.667969 C 15.371132 25.031703 15.599626 25.344556 15.898438 25.576172 A 8 8 0 0 1 23.119141 21 A 4 4 0 0 0 19.119141 25 A 4 4 0 0 0 23.119141 29 A 4 4 0 0 0 27.119141 25 A 4 4 0 0 0 23.46875 21 A 8 8 0 0 1 30.339844 25.576172 C 30.641359 25.342461 30.871753 25.026122 31 24.658203 A 9 9 0 0 0 23.119141 20 z M 23.119141 22 A 3 3.0000001 0 0 1 26.119141 25 A 3 3 0 0 1 23.119141 28 A 3 3 0 0 1 20.119141 25 A 3 3 0 0 1 23.119141 22 z M 23.310547 22.980469 A 2 2 0 0 0 23.119141 23 A 2 2 0 0 0 21.119141 25 A 2 2 0 0 0 23.119141 27 A 1.9999999 2.0000002 0 0 0 25.119141 25 A 2 2 0 0 0 25.119141 24.412109 A 1 1 0 0 1 24.119141 25 A 1 1 0 0 1 23.119141 24 A 1 1 0 0 1 23.708984 23 A 2 2 0 0 0 23.310547 22.980469 z M 27 28.105469 C 26.730608 28.440905 26.425597 28.743104 26.080078 29 L 27 29 L 27 28.105469 z "
     id="path2" />
</svg>
