<?xml version="1.0" encoding="UTF-8" standalone="no"?>
<svg
   xmlns:dc="http://purl.org/dc/elements/1.1/"
   xmlns:cc="http://creativecommons.org/ns#"
   xmlns:rdf="http://www.w3.org/1999/02/22-rdf-syntax-ns#"
   xmlns:svg="http://www.w3.org/2000/svg"
   xmlns="http://www.w3.org/2000/svg"
   xmlns:sodipodi="http://sodipodi.sourceforge.net/DTD/sodipodi-0.dtd"
   xmlns:inkscape="http://www.inkscape.org/namespaces/inkscape"
   viewBox="0 0 32 32"
   version="1.1"
   id="svg4"
   sodipodi:docname="runmacro.svg"
   inkscape:version="0.92.4 (unknown)"
   inkscape:export-filename="/home/rizmut/Dokumen/Rizmut/Github/tmp/breeze/cmd/32/runmacro.png"
   inkscape:export-xdpi="96"
   inkscape:export-ydpi="96">
  <metadata
     id="metadata10">
    <rdf:RDF>
      <cc:Work
         rdf:about="">
        <dc:format>image/svg+xml</dc:format>
        <dc:type
           rdf:resource="http://purl.org/dc/dcmitype/StillImage" />
        <dc:title></dc:title>
      </cc:Work>
    </rdf:RDF>
  </metadata>
  <defs
     id="defs8" />
  <sodipodi:namedview
     pagecolor="#ffffff"
     bordercolor="#666666"
     borderopacity="1"
     objecttolerance="10"
     gridtolerance="10"
     guidetolerance="10"
     inkscape:pageopacity="0"
     inkscape:pageshadow="2"
     inkscape:window-width="1360"
     inkscape:window-height="714"
     id="namedview6"
     showgrid="false"
     inkscape:zoom="7.375"
     inkscape:cx="-2.9152542"
     inkscape:cy="16"
     inkscape:window-x="0"
     inkscape:window-y="28"
     inkscape:window-maximized="1"
     inkscape:current-layer="svg4" />
  <path
     d="m15 4v2.0507812a10 10 0 0 0 -5.3242188 2.2109376l-1.453125-1.4550782-1.4160156 1.4160156 1.4550782 1.453125a10 10 0 0 0 -2.2011719 5.3242188h-2.0605469v2h2.0507812a10 10 0 0 0 2.2109376 5.324219l-1.4550782 1.453125 1.4160156 1.414062 1.453125-1.453125a10 10 0 0 0 5.3242188 2.201172v2.060547h2v-2.050781a10 10 0 0 0 5.324219-2.210938l1.453125 1.453125 1.416015-1.414062-1.455078-1.453125a10 10 0 0 0 2.201172-5.324219h2.060547v-2h-2.050781a10 10 0 0 0 -2.210938-5.3242188l1.455078-1.453125-1.416015-1.4160156-1.453125 1.4550782a10 10 0 0 0 -5.324219-2.2011719v-2.0605469zm1 3a9 9 0 0 1 6.457031 2.7304688 9 9 0 0 1 2.542969 6.2695312 9 9 0 0 1 -2.730469 6.457031 9 9 0 0 1 -6.269531 2.542969 9 9 0 0 1 -6.4570312-2.730469 9 9 0 0 1 -2.5429688-6.269531 9 9 0 0 1 2.7304688-6.4570312 9 9 0 0 1 6.2695312-2.5429688zm-3 4.5v9l7-4.5z"
     fill="#4d4d4d"
     id="path2" />
</svg>
