<?xml version="1.0" encoding="UTF-8" standalone="no"?>
<svg
   xmlns:dc="http://purl.org/dc/elements/1.1/"
   xmlns:cc="http://creativecommons.org/ns#"
   xmlns:rdf="http://www.w3.org/1999/02/22-rdf-syntax-ns#"
   xmlns:svg="http://www.w3.org/2000/svg"
   xmlns="http://www.w3.org/2000/svg"
   xmlns:sodipodi="http://sodipodi.sourceforge.net/DTD/sodipodi-0.dtd"
   xmlns:inkscape="http://www.inkscape.org/namespaces/inkscape"
   viewBox="0 0 32 32"
   version="1.1"
   id="svg4"
   sodipodi:docname="testmode.svg"
   inkscape:version="0.92.4 (unknown)"
   inkscape:export-filename="/home/rizmut/Dokumen/Rizmut/Github/tmp/breeze/cmd/32/testmode.png"
   inkscape:export-xdpi="96"
   inkscape:export-ydpi="96">
  <metadata
     id="metadata10">
    <rdf:RDF>
      <cc:Work
         rdf:about="">
        <dc:format>image/svg+xml</dc:format>
        <dc:type
           rdf:resource="http://purl.org/dc/dcmitype/StillImage" />
      </cc:Work>
    </rdf:RDF>
  </metadata>
  <defs
     id="defs8" />
  <sodipodi:namedview
     pagecolor="#ffffff"
     bordercolor="#666666"
     borderopacity="1"
     objecttolerance="10"
     gridtolerance="10"
     guidetolerance="10"
     inkscape:pageopacity="0"
     inkscape:pageshadow="2"
     inkscape:window-width="1360"
     inkscape:window-height="714"
     id="namedview6"
     showgrid="true"
     inkscape:zoom="10.429825"
     inkscape:cx="-1.4549831"
     inkscape:cy="14.2264"
     inkscape:window-x="0"
     inkscape:window-y="28"
     inkscape:window-maximized="1"
     inkscape:current-layer="svg4">
    <inkscape:grid
       type="xygrid"
       id="grid817" />
  </sodipodi:namedview>
  <path
     d="M 15,4 V 6.0507812 C 13.0467,6.2491172 11.194998,7.0180559 9.6757812,8.2617188 L 8.2226562,6.8066406 6.8066406,8.2226562 8.2617188,9.6757812 C 7.0215729,11.196155 6.2560737,13.047753 6.0605469,15 H 4 v 2 h 2.0507812 c 0.1983359,1.9533 0.9672746,3.805002 2.2109376,5.324219 l -1.4550782,1.453125 1.4160156,1.414062 1.453125,-1.453125 C 11.196155,24.978427 13.047753,25.743926 15,25.939453 V 28 h 2 v -2.050781 c 0.335757,-0.03517 0.669518,-0.08732 1,-0.15625 v -1.03125 C 17.344349,24.915729 16.673482,24.995656 16,25 13.567071,25.000006 11.237782,24.015025 9.5429688,22.269531 7.9121722,20.589957 6.9999944,18.34104 7,16 6.9999943,13.567071 7.9849748,11.237783 9.7304688,9.5429688 11.410043,7.9121721 13.65896,6.9999943 16,7 c 2.432929,-5.7e-6 4.762217,0.9849748 6.457031,2.7304688 C 24.087828,11.410043 25.000006,13.65896 25,16 c -0.0056,0.67363 -0.08686,1.344498 -0.242188,2 h 1.019532 c 0.0709,-0.33038 0.125002,-0.664142 0.162109,-1 H 28 V 15 H 25.949219 C 25.750883,13.0467 24.981944,11.194998 23.738281,9.6757812 L 25.193359,8.2226562 23.777344,6.8066406 22.324219,8.2617188 C 20.803845,7.0215729 18.952247,6.2560736 17,6.0605469 V 4 Z m -2,7.5 v 9 L 20,16 Z m 9,5.5 v 9.085938 L 18.207031,22.292969 17.5,23 l 4,4 1,1 1,-1 4,-4 L 26.792969,22.292969 23,26.085938 V 17 Z"
     id="path2"
     inkscape:connector-curvature="0"
     style="fill:#4d4d4d"
     sodipodi:nodetypes="cccccccccccccccccccccccccccccccccccccccccccccccccccccccc" />
</svg>
