<svg height="42" viewBox="0 0 12.170833 11.1125" width="46" xmlns="http://www.w3.org/2000/svg"><g stroke-width=".264583"><path d="m0 0h12.170834v11.1125h-12.170834z" fill="#f2f2f2" stroke-linecap="square" stroke-opacity=".5"/><g fill="#232629"><path d="m7.1437483 6.0875328v2.6458334l.79375-.5291667.7937501.5291667v-2.6458334zm1.8520835 0v.2645833h1.5875002v2.6458335h-1.0583336v.2645833.7937501h-2.1166666v-1.0583334h-.2645835v1.3229164h.2645835 2.1166666.2645834v-.0026l.00207.0026 1.0562662-1.0562663v-.0020668-.3720704-2.8029297h-.264586zm-1.0583335.79375h.5291668c-.5291668.79375-1.0583333 1.0583333-1.0583333 1.0583333s.2645832-1.0583333.5291665-1.0583333z"/><path d="m1.0583333.79375002v.26458328 3.96875h.2645833 3.96875v-.2645833-2.9104167-.1850016h-.00206l.00206-.00207-.8712647-.87126468-.00206.00207v-.00207h-.1850086zm.2645833.26458328h.79375v1.0583334.2645833h2.1166667v-.2645833-1.0583334h.077515l.7162353.7162354v.077515 2.9104167h-.529167v-1.8520837h-.2645833-2.1166667-.2645833v1.8520833h-.5291667zm1.0583334 0h1.0319784v1.0583334h-1.0319784zm-.2645834 2.1166667h2.1166667v1.5875h-2.1166667z"/><path d="m7.4083332.79375002v.26458328 1.0583334h-.5291667v.2645833 1.8520833h.2645833.79375v.5291667.2645833h2.1166672v-.2645833-.5291667h1.058333v-.2645833-1.5875-.2645833h-.529166v-1.0583334-.26458328zm.2645833.26458328h2.6458335v1.0583334h-.264583v-.2645834h-2.1166672v.2645834h-.2645833zm.2645833.2645834v.2645833h2.1166672v-.2645833zm-.79375 1.0583333h3.7041672v1.5875h-.529167v-.5291667h-2.6458335v.5291667h-.5291667zm2.6458334.2645833v.2645834h.7937508v-.2645834zm-1.5875 1.5875h1.5875v.5291667h-1.5875z"/><path d="m1.3229166 6.087533v4.233333h.2645834 3.1749999.2645834v-.264583-2.5383464-.3720703l-1.0583333-1.0583333h-.2645834-2.1166666zm.2645834.2645833h2.1166666v.79375.2645834h1.0583333v2.6458333h-3.1749999z"/></g></g></svg>