<svg height="96" width="96" xmlns="http://www.w3.org/2000/svg" xmlns:xlink="http://www.w3.org/1999/xlink"><linearGradient id="a" gradientTransform="matrix(1.3636364 0 0 1.3793103 -93.636364 970.22427)" gradientUnits="userSpaceOnUse" x1="44" x2="44" y1="1044.3622" y2="964.36218"><stop offset="0" stop-color="#8e44ad"/><stop offset="1" stop-color="#9b59b6"/></linearGradient><linearGradient id="b" gradientTransform="matrix(1.3636364 0 0 1.3793103 -25.636366 977.53457)" gradientUnits="userSpaceOnUse" x1="59" x2="78" y1="1034.8622" y2="1034.8622"><stop offset="0" stop-color="#d3bdd7"/><stop offset="1" stop-color="#e8d9eb"/></linearGradient><linearGradient id="c" gradientTransform="matrix(1.3636364 0 0 -1.3793103 -14.727273 1067.8105)" gradientUnits="userSpaceOnUse" x1="54.066666" x2="40" y1="30.775019" y2="17"><stop offset="0" stop-color="#383e51"/><stop offset="1" stop-color="#655c6f" stop-opacity="0"/></linearGradient><g transform="translate(0 -956.3622)"><path d="m18 964.3622v80h41l19.000002-19v-41.68965-19.31035h-19.09091z" fill="url(#a)"/><path d="m18 1043.3622h41v1h-41z" fill="#2e3132" fill-opacity=".294118"/><path d="m18 964.36218h60v1.00002h-60z" fill="#fff" fill-opacity=".409836"/><path d="m78.000002 1025.3622-19.000002 19v-19z" fill="url(#b)" fill-rule="evenodd"/><path d="m39.818183 1044.3622 19.181817-19v19z" fill="url(#c)" fill-rule="evenodd" opacity=".2"/><path d="m48 989.3622a15 4 0 0 0 -14.984375 3.875c-.0053.0281-.01563.0543-.01563.084v22.08202c0 .069.01617.133.04297.1914a15 4 0 0 0 14.957035 3.76758 15 4 0 0 0 14.984375-3.875c.0053-.028.01563-.054.01563-.084v-.041-7-8-7-.041c0-.0687-.01617-.13302-.04297-.1914a15 4 0 0 0 -14.957035-3.7676zm0 1a14 3 0 0 1 14 3 14 3 0 0 1 -14 3 14 3 0 0 1 -14-3 14 3 0 0 1 14-3zm-14 4.42383a15 4 0 0 0 14 2.57617 15 4 0 0 0 14-2.56641v5.56641a14 3 0 0 1 -14 3 14 3 0 0 1 -14-3zm0 6.99997a15 4 0 0 0 14 2.5762 15 4 0 0 0 14-2.5664v6.5664a14 3 0 0 1 -14 3 14 3 0 0 1 -14-3zm0 8a15 4 0 0 0 14 2.5762 15 4 0 0 0 14-2.5664v5.5664a14 3 0 0 1 -14 3 14 3 0 0 1 -14-3z" fill="#e8d9eb"/></g></svg>