<svg height="96" width="96" xmlns="http://www.w3.org/2000/svg" xmlns:xlink="http://www.w3.org/1999/xlink"><linearGradient id="a" gradientTransform="matrix(1.3636364 0 0 1.3793103 4.363636 3.86207)" gradientUnits="userSpaceOnUse" x1="44" x2="44" y1="1044.3622" y2="964.36218"><stop offset="0" stop-color="#f27935"/><stop offset="1" stop-color="#f2784b"/></linearGradient><linearGradient id="b" gradientTransform="matrix(1.3636364 0 0 1.3793103 4.363636 3.86207)" gradientUnits="userSpaceOnUse" x1="68" x2="68" y1="1044.3622" y2="1024.3622"><stop offset="0" stop-color="#f7ab89"/><stop offset="1" stop-color="#fbd2bf"/></linearGradient><linearGradient id="c" gradientTransform="matrix(1.3636364 0 0 -1.3793103 -14.727273 1067.8105)" gradientUnits="userSpaceOnUse" x1="54.066666" x2="40" y1="30.775019" y2="17"><stop offset="0" stop-color="#383e51"/><stop offset="1" stop-color="#655c6f" stop-opacity="0"/></linearGradient><g transform="translate(0 -956.3622)"><path d="m18 964.3622v80h41l19.000002-19v-41.68965-19.31035h-19.09091z" fill="url(#a)"/><path d="m18 1043.3622h41v1h-41z" fill="#2e3132" fill-opacity=".294118"/><path d="m18 964.36218h60v1.00002h-60z" fill="#fff" fill-opacity=".409836"/><path d="m78.000002 1025.3622-19.000002 19v-19z" fill="url(#b)" fill-rule="evenodd"/><path d="m39.818183 1044.3622 19.181817-19v19z" fill="url(#c)" fill-rule="evenodd" opacity=".2"/><path d="m30 989.3622v1.2069 24.7931h1.363636 13.636364v3h-4v1l4.272728.034h5.454546l4.272726-.034v-1h-4v-3h15v-2.7586-23.2414zm1 1h34v24h-34zm14 6v11l7-5.5z" fill="#f7ab89"/></g></svg>