<svg height="96" width="96" xmlns="http://www.w3.org/2000/svg" xmlns:xlink="http://www.w3.org/1999/xlink"><linearGradient id="a" gradientUnits="userSpaceOnUse" x1="-244.57143" x2="-244.57143" y1="1532.9264" y2="1514.9264"><stop offset="0" stop-color="#7be5b9"/><stop offset="1" stop-color="#9deccb"/></linearGradient><linearGradient id="b" gradientTransform="matrix(1.3636364 0 0 1.3793103 82.363634 11.86207)" gradientUnits="userSpaceOnUse" x1="44" x2="44" y1="1044.3622" y2="964.36218"><stop offset="0" stop-color="#26c281"/><stop offset="1" stop-color="#3fc380"/></linearGradient><linearGradient id="c" gradientTransform="matrix(1.3636364 0 0 -1.3793103 -14.727273 1067.8105)" gradientUnits="userSpaceOnUse" x1="54.066666" x2="40" y1="30.775019" y2="17"><stop offset="0" stop-color="#383e51"/><stop offset="1" stop-color="#655c6f" stop-opacity="0"/></linearGradient><g transform="translate(0 -956.3622)"><path d="m18 964.3622v80h41l19.000002-19v-41.68965-19.31035h-19.09091z" fill="url(#b)"/><path d="m18 1043.3622h41v1h-41z" fill="#2e3132" fill-opacity=".294118"/><path d="m18 964.36218h60v1.00002h-60z" fill="#fff" fill-opacity=".409836"/><path d="m78.000002 1025.3622-19.000002 19v-19z" fill="url(#a)" fill-rule="evenodd"/><path d="m39.818183 1044.3622 19.181817-19v19z" fill="url(#c)" fill-rule="evenodd" opacity=".2"/><path d="m32.999999 989.3622.000002 30.1724h30.000001l-.000002-30.1724zm1.000001 1h28v6h-28zm0 7h7v4h-7zm8 0h12v4h-12zm13 0h7v4h-7zm-21 5 7-.001v5.001l-7 .001zm8-.001h12v5.001h-12zm13 0h7v5.001h-7zm-21 6.001 7-.001v5.001l-7 .001zm8-.001h12v5.001h-12zm13 0h7v5.001h-7zm-21 6.002 7-.001v3.999l-7 .001zm8-.001h12v3.999h-12zm13 0h7v3.999h-7z" fill="#e8faf3"/></g></svg>