<svg height="96" width="96" xmlns="http://www.w3.org/2000/svg" xmlns:xlink="http://www.w3.org/1999/xlink"><linearGradient id="a" gradientTransform="matrix(1.3636364 0 0 1.3793103 4.363636 960.22427)" gradientUnits="userSpaceOnUse" x1="47" x2="47" y1="61" y2="47"><stop offset="0" stop-color="#c8e3fe"/><stop offset="1" stop-color="#fff"/></linearGradient><linearGradient id="b" gradientTransform="matrix(1.3636364 0 0 -1.3793103 -14.727273 1067.8105)" gradientUnits="userSpaceOnUse" x1="54.066666" x2="40" y1="30.775019" y2="17"><stop offset="0" stop-color="#383e51"/><stop offset="1" stop-color="#655c6f" stop-opacity="0"/></linearGradient><linearGradient id="c" gradientTransform="matrix(1.3636364 0 0 1.3793103 4.363636 960.22427)" gradientUnits="userSpaceOnUse" x1="32" x2="32" y1="61" y2="3"><stop offset="0" stop-color="#22a7f0"/><stop offset="1" stop-color="#19b5fe"/></linearGradient><g transform="translate(0 -956.3622)"><path d="m18 964.3622v80h41l19.000002-19v-41.68965-19.31035h-19.09091z" fill="url(#c)"/><path d="m18 1043.3622h41v1h-41z" fill="#2e3132" fill-opacity=".294118"/><path d="m18 964.36218h60v1.00002h-60z" fill="#fff" fill-opacity=".409836"/><path d="m78.000002 1025.3622-19.000002 19v-19z" fill="url(#a)" fill-rule="evenodd"/><path d="m39.818183 1044.3622 19.181817-19v19z" fill="url(#b)" fill-rule="evenodd" opacity=".2"/><path d="m33 989.3622v1h30.000001v-1zm0 4v1h30.000001v-1zm0 5v1h15v-1zm-.000001 5 .000001 1h30.000001l-.000001-1zm0 4 .000001 1h12.000001l-.000001-1zm18.000001 0v12h12v-12zm1.090909 1h9.909091v9.9655h-9.909091zm-19.090909 2v1.069h7v-1.069zm0 4v1h14v-1zm0 3.9655-.000001 1.0345h8.000001l.000001-1.0345z" fill="#fff"/></g></svg>